<?xml version="1.0" encoding="utf-8"?><!-- Uploaded to: SVG Repo, www.svgrepo.com, Generator: SVG Repo Mixer Tools -->
<svg width="800px" height="800px" viewBox="0 0 960 960" fill="none" xmlns="http://www.w3.org/2000/svg">
    <path
        d="M204.252 668.264C227.423 812.784 397.111 777.228 470.719 691.935C523.353 753.558 619.034 788.215 692.442 742.172C790.32 683.645 743.079 553.009 706.225 470.112C652.991 366.642 581.181 103.97 422.979 210.237C346.175 284.944 312.018 393.308 261.381 485.892C234.215 543.021 201.356 603.146 204.252 668.264ZM569.795 876.804C491.593 881.598 412.692 878.901 335.189 866.417C178.085 844.245 99.0837 787.715 87.2984 623.92C88.4969 474.706 62.6292 269.663 161.406 146.816C242.804 72.3095 389.221 87.7901 492.492 83.9949C639.708 68.1147 838.559 111.56 862.43 284.145C870.02 460.624 924.152 764.744 727.598 853.733C677.061 872.609 622.829 873.408 569.795 876.804Z"
        fill="#000000"/>
    <path
        d="M470.72 691.933C397.112 777.227 227.424 812.782 204.253 668.263C201.357 603.044 234.216 543.02 261.382 485.791C312.018 393.107 346.276 284.842 422.98 210.136C581.182 103.968 652.992 366.64 706.126 470.111C742.98 553.007 790.32 683.644 692.343 742.171C618.935 788.313 523.354 753.656 470.72 691.933ZM501.781 440.348C446.45 411.384 413.991 474.905 424.578 520.148C430.57 559.099 448.548 592.757 471.02 624.817C507.274 577.576 573.891 484.293 501.781 440.348ZM561.007 280.548C442.855 115.754 357.462 409.586 306.126 490.885C281.057 545.816 244.603 602.445 247.998 664.967C269.372 764.243 391.918 717.202 437.761 662.77C440.458 659.973 440.558 658.375 438.161 655.379C403.604 610.735 377.836 556.802 378.335 499.274C377.337 333.282 610.445 368.238 573.092 523.244C562.306 572.483 534.64 616.228 503.279 654.88C501.382 657.177 500.183 658.775 502.88 661.571C542.131 703.219 602.555 736.578 659.484 710.41C755.664 660.173 681.656 530.435 651.694 457.826C623.13 397.901 600.158 334.58 561.007 280.548Z"
        fill="white"/>
    <path
        d="M573.092 523.144C610.445 368.138 377.337 333.182 378.335 499.174C377.836 556.702 403.604 610.635 438.161 655.279C440.458 658.275 440.458 659.873 437.761 662.67C391.819 717.102 269.372 764.143 247.998 664.867C244.702 602.445 281.057 545.716 306.126 490.785C357.462 409.586 442.855 115.754 561.007 280.548C600.258 334.58 623.129 397.801 651.694 457.626C681.656 530.236 755.664 659.973 659.484 710.211C602.555 736.378 542.131 703.019 502.88 661.372C500.183 658.575 501.382 657.077 503.279 654.68C534.74 616.128 562.305 572.383 573.092 523.144Z"
        fill="#000000"/>
    <path
        d="M501.78 440.349C573.89 484.294 507.173 577.577 471.018 624.818C448.546 592.758 430.569 559.1 424.576 520.249C414.09 474.906 446.449 411.385 501.78 440.349Z"
        fill="#000000"/>
</svg>
